<?xml version="1.0" encoding="iso-8859-1"?>
<!-- Uploaded to: SVG Repo, www.svgrepo.com, Generator: SVG Repo Mixer Tools -->
<svg xmlns="http://www.w3.org/2000/svg" xmlns:xlink="http://www.w3.org/1999/xlink" version="1.1" id="Layer_1"  viewBox="0 0 477.2 477.2" xml:space="preserve" width="512" height="512">
<g id="_x32_7._Planet">
	<g id="XMLID_13_">
		<g>
			<g>
				<path style="fill:#FF7124;" d="M336.91,170.585c77.04,14.57,130.29,45.77,130.29,81.9c0,36.14-53.25,67.34-130.29,81.91      c-29.78,5.64-63.11,8.79-98.31,8.79c-35.19,0-68.52-3.15-98.3-8.79C63.25,319.825,10,288.625,10,252.485      c0-36.13,53.25-67.33,130.3-81.9c-12.03,14.42-20.95,31.54-25.71,50.31c-20,8.77-31.88,19.72-31.88,31.59      c0,11.88,11.88,22.83,31.88,31.6c28.49,12.47,73.44,20.52,124.01,20.52c50.58,0,95.53-8.05,124.02-20.52      c20-8.77,31.88-19.72,31.88-31.6c0-11.87-11.88-22.82-31.88-31.59C357.86,202.125,348.94,185.005,336.91,170.585z"/>
			</g>
			<g>
				<path style="fill:#F2D59F;" d="M373.38,64.835c0,17.96,14.54,32.5,32.5,32.5c-17.96,0-32.5,14.56-32.5,32.5      c0-17.94-14.55-32.5-32.5-32.5C358.83,97.335,373.38,82.795,373.38,64.835z"/>
			</g>
			<g>
				<path style="fill:#F2D59F;" d="M363.19,388.955c0,8.29,6.71,15,15,15c-8.29,0-15,6.72-15,15c0-8.28-6.72-15-15-15      C356.47,403.955,363.19,397.245,363.19,388.955z"/>
			</g>
			<g>
				<path style="fill:#8ECAC1;" d="M362.62,220.895c2.56,10.11,3.93,20.69,3.93,31.59c0,10.91-1.37,21.49-3.93,31.6      c-28.49,12.47-73.44,20.52-124.02,20.52c-50.57,0-95.52-8.05-124.01-20.52c-2.57-10.11-3.93-20.69-3.93-31.6      c0-10.9,1.36-21.48,3.93-31.59c4.76-18.77,13.68-35.89,25.71-50.31c23.47-28.14,58.8-46.04,98.3-46.04      c39.51,0,74.83,17.9,98.31,46.04C348.94,185.005,357.86,202.125,362.62,220.895z"/>
			</g>
			<g>
				<path style="fill:#8ECAC1;" d="M336.91,334.395c-23.48,28.14-58.8,46.04-98.31,46.04c-39.5,0-74.83-17.9-98.3-46.04      c29.78,5.64,63.11,8.79,98.3,8.79C273.8,343.185,307.13,340.035,336.91,334.395z"/>
			</g>
			<g>
				<path style="fill:#F2D59F;" d="M103.38,357.415c0,20.39,16.53,36.92,36.92,36.92c-20.39,0-36.92,16.54-36.92,36.93      c0-20.39-16.53-36.93-36.93-36.93C86.85,394.335,103.38,377.805,103.38,357.415z"/>
			</g>
			<g>
				<path style="fill:#F2D59F;" d="M88.42,71.705c0,15.3,12.4,27.7,27.69,27.7c-15.29,0-27.69,12.4-27.69,27.69      c0-15.29-12.4-27.69-27.69-27.69C76.02,99.405,88.42,87.005,88.42,71.705z"/>
			</g>
		</g>
		<g>
			<g>
				<path style="fill:#5E2A41;" d="M238.6,390.435c-41.042,0-79.67-18.091-105.98-49.635c-3.537-4.241-2.967-10.548,1.274-14.085      c4.243-3.537,10.548-2.966,14.085,1.274c22.497,26.975,55.527,42.445,90.62,42.445c35.089,0,68.123-15.472,90.632-42.446      c3.539-4.242,9.845-4.811,14.085-1.271c4.241,3.538,4.81,9.844,1.271,14.084C318.269,372.344,279.638,390.435,238.6,390.435z"/>
			</g>
			<g>
				<path style="fill:#5E2A41;" d="M114.583,294.087c-4.465,0.001-8.534-3.012-9.685-7.538c-2.812-11.063-4.238-22.523-4.238-34.064      c0-11.533,1.426-22.991,4.238-34.054c5.01-19.757,14.597-38.519,27.723-54.252c26.307-31.542,64.935-49.634,105.979-49.634      c41.039,0,79.669,18.091,105.988,49.634c13.126,15.733,22.713,34.495,27.725,54.258c2.812,11.105,4.237,22.559,4.237,34.048      c0,11.496-1.425,22.954-4.236,34.056c-1.355,5.353-6.796,8.591-12.148,7.239c-5.354-1.355-8.595-6.795-7.239-12.149      c2.405-9.497,3.624-19.303,3.624-29.145c0-9.835-1.219-19.638-3.624-29.135c-4.28-16.877-12.474-32.908-23.695-46.358      c-22.507-26.975-55.542-42.446-90.631-42.446c-35.093,0-68.123,15.471-90.62,42.445c-11.222,13.451-19.416,29.482-23.696,46.362      c-2.405,9.459-3.624,19.259-3.624,29.132c0,9.88,1.219,19.684,3.622,29.137c1.36,5.353-1.875,10.795-7.228,12.155      C116.227,293.987,115.398,294.087,114.583,294.087z"/>
			</g>
			<g>
				<path style="fill:#5E2A41;" d="M238.6,353.185c-35.051,0-68.749-3.017-100.161-8.965c-39.608-7.49-73.3-19.309-97.429-34.178      C14.181,293.509,0,273.606,0,252.485c0-21.117,14.181-41.017,41.01-57.549c24.131-14.868,57.823-26.687,97.432-34.177      c5.426-1.02,10.658,2.541,11.684,7.968c1.026,5.427-2.541,10.658-7.968,11.685C69.092,194.227,20,223.192,20,252.485      c0,29.299,49.092,58.268,122.158,72.084c30.19,5.718,62.637,8.616,96.442,8.616c33.811,0,66.262-2.898,96.449-8.615      c73.063-13.818,122.151-42.787,122.151-72.085c0-29.293-49.087-58.257-122.148-72.073c-5.426-1.026-8.994-6.258-7.967-11.685      c1.026-5.427,6.252-8.989,11.684-7.968c39.605,7.49,73.293,19.309,97.423,34.177c26.828,16.532,41.009,36.433,41.009,57.549      c0,21.121-14.181,41.024-41.009,57.558c-24.128,14.869-57.816,26.688-97.423,34.179      C307.359,350.169,273.657,353.185,238.6,353.185z"/>
			</g>
			<g>
				<path style="fill:#5E2A41;" d="M238.6,314.605c-50.346,0-97.007-7.785-128.02-21.358C79.279,279.52,72.71,263.504,72.71,252.485      c0-11.015,6.569-27.024,37.864-40.748c5.059-2.219,10.957,0.084,13.174,5.143c2.218,5.058-0.084,10.956-5.142,13.174      C94.578,240.59,92.71,249.886,92.71,252.485c0,6.941,9.681,15.332,25.896,22.442c28.149,12.32,73.008,19.678,119.994,19.678      c46.991,0,91.855-7.357,120.01-19.681c16.209-7.107,25.89-15.497,25.89-22.439c0-2.599-1.868-11.895-25.896-22.432      c-5.058-2.218-7.36-8.116-5.142-13.174c2.218-5.059,8.117-7.361,13.174-5.143c31.295,13.724,37.864,29.733,37.864,40.748      c0,11.02-6.569,27.035-37.864,40.759C335.617,306.82,288.952,314.605,238.6,314.605z"/>
			</g>
			<g>
				<path style="fill:#5E2A41;" d="M363.19,426.456c-4.142,0-7.5-3.358-7.5-7.5c0-4.136-3.364-7.5-7.5-7.5      c-4.142,0-7.5-3.358-7.5-7.5c0-4.143,3.358-7.5,7.5-7.5c4.136,0,7.5-3.364,7.5-7.5c0-4.143,3.358-7.5,7.5-7.5      c4.142,0,7.5,3.357,7.5,7.5c0,4.136,3.364,7.5,7.5,7.5c4.142,0,7.5,3.357,7.5,7.5c0,4.142-3.358,7.5-7.5,7.5      c-4.136,0-7.5,3.364-7.5,7.5C370.69,423.098,367.332,426.456,363.19,426.456z"/>
			</g>
			<path style="fill:#5E2A41;" d="M187.04,56.895c-6.043,0-10.96-4.917-10.96-10.96c0-4.143-3.358-7.5-7.5-7.5s-7.5,3.357-7.5,7.5     c0,6.043-4.917,10.96-10.96,10.96c-4.142,0-7.5,3.357-7.5,7.5c0,4.143,3.358,7.5,7.5,7.5c6.043,0,10.96,4.921,10.96,10.97     c0,4.143,3.358,7.5,7.5,7.5s7.5-3.357,7.5-7.5c0-6.049,4.917-10.97,10.96-10.97c4.142,0,7.5-3.357,7.5-7.5     C194.54,60.252,191.182,56.895,187.04,56.895z"/>
			<g>
				<path style="fill:#5E2A41;" d="M88.42,134.595c-4.142,0-7.5-3.357-7.5-7.5c0-11.133-9.057-20.19-20.19-20.19      c-4.142,0-7.5-3.357-7.5-7.5s3.358-7.5,7.5-7.5c11.133,0,20.19-9.062,20.19-20.199c0-4.143,3.358-7.5,7.5-7.5s7.5,3.357,7.5,7.5      c0,11.138,9.057,20.199,20.19,20.199c4.142,0,7.5,3.357,7.5,7.5s-3.358,7.5-7.5,7.5c-11.133,0-20.19,9.058-20.19,20.19      C95.92,131.238,92.562,134.595,88.42,134.595z M82.422,99.404c2.231,1.751,4.247,3.767,5.998,5.998      c1.751-2.232,3.767-4.247,5.998-5.998c-2.231-1.752-4.247-3.768-5.998-5.999C86.668,95.636,84.653,97.652,82.422,99.404z"/>
			</g>
			<g>
				<path style="fill:#5E2A41;" d="M103.38,438.765c-4.142,0-7.5-3.357-7.5-7.5c0-16.227-13.202-29.43-29.43-29.43      c-4.142,0-7.5-3.357-7.5-7.5c0-4.143,3.358-7.5,7.5-7.5c16.228,0,29.43-13.197,29.43-29.42c0-4.143,3.358-7.5,7.5-7.5      s7.5,3.357,7.5,7.5c0,16.223,13.198,29.42,29.42,29.42c4.142,0,7.5,3.357,7.5,7.5c0,4.143-3.358,7.5-7.5,7.5      c-16.223,0-29.42,13.202-29.42,29.43C110.88,435.408,107.522,438.765,103.38,438.765z M91.129,394.336      c4.838,3.244,9.006,7.411,12.25,12.25c3.244-4.839,7.41-9.006,12.248-12.25c-4.838-3.243-9.004-7.41-12.248-12.247      C100.135,386.926,95.968,391.093,91.129,394.336z"/>
			</g>
			<g>
				<path style="fill:#5E2A41;" d="M373.38,137.336c-4.142,0-7.5-3.357-7.5-7.5c0-13.785-11.215-25-25-25      c-4.142,0-7.5-3.357-7.5-7.5c0-4.143,3.358-7.5,7.5-7.5c13.785,0,25-11.215,25-25c0-4.143,3.358-7.5,7.5-7.5      c4.142,0,7.5,3.357,7.5,7.5c0,13.785,11.215,25,25,25c4.142,0,7.5,3.357,7.5,7.5c0,4.143-3.358,7.5-7.5,7.5      c-13.785,0-25,11.215-25,25C380.88,133.978,377.522,137.336,373.38,137.336z M364.174,97.336      c3.546,2.549,6.657,5.66,9.206,9.205c2.548-3.545,5.66-6.656,9.206-9.205c-3.546-2.549-6.657-5.66-9.206-9.205      C370.831,91.675,367.72,94.787,364.174,97.336z"/>
			</g>
		</g>
	</g>
</g>















</svg>